<svg xmlns="http://www.w3.org/2000/svg" viewBox="0 0 1024 1024" xml:space="preserve">
  <path d="M279.401 867.259h459.44c14.101 0 25.525-11.491 25.525-25.676 0-14.188-11.42-25.676-25.524-25.676H279.4c-14.103 0-25.525 11.488-25.525 25.676 0 14.185 11.422 25.676 25.525 25.676z m459.44-434.974h-459.44c-14.103 0-25.525 11.488-25.525 25.676 0 14.185 11.422 25.675 25.525 25.675h459.44c14.101 0 25.525-11.49 25.525-25.675 0-14.188-11.42-25.676-25.524-25.676z m0 129.888h-459.44c-14.103 0-25.525 11.488-25.525 25.675 0 14.185 11.422 25.676 25.525 25.676h459.44c14.101 0 25.525-11.49 25.525-25.676 0-14.187-11.42-25.675-25.524-25.675z m0 126.867h-459.44c-14.103 0-25.525 11.488-25.525 25.676 0 14.185 11.422 25.675 25.525 25.675h459.44c14.101 0 25.525-11.49 25.525-25.675 0-14.188-11.42-25.676-25.524-25.676zM279.175 204.01c-42.156 0-76.649 34.372-76.649 76.38 0 42.008 34.493 76.377 76.65 76.377h459.893c42.156 0 76.65-34.37 76.65-76.377s-34.494-76.38-76.65-76.38h-127.93c16.085-21.296 25.73-47.687 25.73-76.38 0-70.306-57.193-127.3-127.75-127.3S381.37 57.323 381.37 127.63c0 28.696 9.645 55.081 25.73 76.38H279.174zM509.121 51.25c42.26 0 76.65 34.267 76.65 76.377s-34.39 76.38-76.65 76.38-76.649-34.269-76.649-76.38c0-42.107 34.39-76.377 76.65-76.377z m229.947 203.677c13.847 0 25.549 11.66 25.549 25.46 0 13.799-11.702 25.459-25.549 25.459H279.174c-13.85 0-25.548-11.66-25.548-25.458 0-13.802 11.699-25.461 25.548-25.461h459.894z" fill="#ffffff" ></path><path d="M855.502 75.848H700.488c-15.722 0-27.255 14.001-25.213 29.603 0.027 0.166 0.051 0.344 0.064 0.51 1.522 11.871 11.152 20.994 23.095 20.994h157.068c28.216 0 51.094 22.881 51.094 51.103v741.04c0 28.223-22.878 51.104-51.094 51.104H165.758c-28.213 0-51.091-22.881-51.091-51.103v-741.04c0-28.223 22.878-51.107 51.091-51.107h157.074c11.953 0 21.57-9.123 23.09-20.979 0.027-0.166 0.039-0.344 0.066-0.513 2.054-15.61-9.479-29.615-25.216-29.615H165.758c-56.2 0.003-102.182 45.996-102.182 102.213v741.04c0 56.215 45.983 102.21 102.182 102.21h689.744c56.202 0 102.186-45.995 102.186-102.21v-741.04c0-56.214-45.984-102.213-102.186-102.213z" fill="#ffffff" ></path><path d="M471.363 128.71c0 20.851 16.904 37.758 37.758 37.758 20.852 0 37.758-16.907 37.758-37.758 0-20.855-16.906-37.758-37.758-37.758-20.854 0-37.758 16.903-37.758 37.758z" fill="#ffffff" ></path>
</svg>