<svg xmlns="http://www.w3.org/2000/svg" viewBox="0 0 1024 1024" xml:space="preserve">
  <path d="M512 51.2c-253.952 0-460.8 206.848-460.8 460.8s206.848 460.8 460.8 460.8 460.8-206.848 460.8-460.8-206.848-460.8-460.8-460.8z m0 732.672c-139.776 0-252.416-113.152-252.416-252.416h97.28c0 86.016 69.632 155.648 155.648 155.648s155.648-69.632 155.648-155.648c0-86.016-69.632-155.648-155.648-155.648v97.28L356.352 336.896 512 201.216v77.824c139.776 0 252.416 113.152 252.416 252.416s-112.64 252.416-252.416 252.416z" fill="#909399" ></path>
</svg>