<svg xmlns="http://www.w3.org/2000/svg" viewBox="0 0 1024 1024" xml:space="preserve">
  <path d="M893.44 0a130.005333 130.005333 0 0 1 129.92 129.92V893.44a129.194667 129.194667 0 0 1-129.28 130.56H129.92A130.005333 130.005333 0 0 1 0 894.08V129.92A130.005333 130.005333 0 0 1 129.92 0H893.44z m0 86.4H129.92v0.64c-23.68 0-43.52 19.2-43.52 43.52v763.52c0 23.68 19.2 43.52 43.52 43.52H893.44c23.68 0 43.52-19.2 43.52-43.52V129.92c0-23.68-19.2-43.52-43.52-43.52zM375.04 208c55.04 0 104.32 24.32 137.6 63.36a179.968 179.968 0 0 1 137.6-63.36h18.56c110.08 0 199.68 89.6 199.68 199.68v22.4c0 106.88-104.96 231.68-330.88 392.32a44.117333 44.117333 0 0 1-50.56 0.64C261.12 664.32 156.16 539.52 156.16 430.08v-22.4c0-110.08 89.6-199.68 199.68-199.68h19.2z m0 87.04h-19.2a112.810667 112.810667 0 0 0-112.64 112.64v22.4c0 41.6 35.84 135.04 268.8 303.36 229.205333-167.68 268.032-259.541333 269.397333-301.013333l0.042667-24.746667a112.810667 112.810667 0 0 0-112.64-112.64h-18.56c-51.84 0-94.08 42.24-94.08 94.08a43.562667 43.562667 0 0 1-87.04 0c0-51.84-42.24-94.08-94.08-94.08z" fill="#FFFFFF" ></path>
</svg>