<svg xmlns="http://www.w3.org/2000/svg" viewBox="0 0 1024 1024" xml:space="preserve">
  <path d="M1011.2 788.48L878.08 665.6c-10.24-12.8-28.16-20.48-43.52-20.48-17.92 0-33.28 7.68-43.52 20.48l-133.12 122.88c-15.36 15.36-15.36 38.4 0 53.76 15.36 15.36 38.4 12.8 53.76 0l74.24-69.12c2.56-2.56 5.12 0 5.12 2.56v209.92c0 20.48 17.92 38.4 38.4 38.4s38.4-17.92 38.4-38.4V768c0-2.56 2.56-5.12 5.12-2.56l84.48 79.36c7.68 7.68 17.92 10.24 25.6 10.24 10.24 0 20.48-5.12 28.16-12.8 17.92-15.36 15.36-38.4 0-53.76z" fill="#FF794F" ></path><path d="M657.92 926.72H115.2c-20.48 0-38.4-17.92-38.4-38.4V307.2h849.92v350.72c0 20.48 17.92 38.4 38.4 38.4s38.4-17.92 38.4-38.4V115.2c0-64-51.2-115.2-115.2-115.2H115.2C51.2 0 0 51.2 0 115.2v773.12c0 64 51.2 115.2 115.2 115.2h540.16c20.48 0 38.4-17.92 38.4-38.4 2.56-20.48-15.36-38.4-35.84-38.4z m181.76-837.12c2.56-5.12 2.56-7.68 5.12-12.8h46.08c20.48 0 38.4 17.92 38.4 38.4V230.4h-168.96l79.36-140.8z m-256 0c2.56-5.12 2.56-7.68 5.12-12.8h168.96l-87.04 151.04V230.4h-166.4l79.36-140.8z m-256 0c2.56-5.12 2.56-7.68 5.12-12.8h168.96l-87.04 151.04V230.4H245.76l81.92-140.8zM76.8 115.2C76.8 94.72 94.72 76.8 115.2 76.8h130.56L158.72 227.84V230.4H76.8V115.2z" fill="#FF794F" ></path><path d="M473.6 396.8c-15.36-12.8-33.28-15.36-51.2-7.68-23.04 10.24-38.4 35.84-38.4 66.56v263.68c0 30.72 15.36 56.32 35.84 66.56 7.68 2.56 15.36 5.12 20.48 5.12 10.24 0 20.48-2.56 28.16-10.24l189.44-133.12c17.92-10.24 30.72-30.72 33.28-53.76 2.56-28.16-10.24-53.76-33.28-69.12l-184.32-128z m135.68 194.56l-143.36 102.4c-2.56 2.56-5.12 0-5.12-2.56v-204.8c0-2.56 2.56-2.56 5.12-2.56l143.36 102.4c2.56 0 2.56 2.56 0 5.12z" fill="#FF794F" ></path>
</svg>