<svg xmlns="http://www.w3.org/2000/svg" viewBox="0 0 1024 1024" xml:space="preserve">
  <path d="M1011.2 788.48L878.08 665.6c-10.24-12.8-28.16-20.48-43.52-20.48-17.92 0-33.28 7.68-43.52 20.48l-133.12 122.88c-15.36 15.36-15.36 38.4-2.56 53.76 15.36 15.36 38.4 15.36 53.76 2.56l81.92-76.8v217.6c0 20.48 17.92 38.4 38.4 38.4s38.4-17.92 38.4-38.4v-225.28l92.16 84.48c7.68 7.68 17.92 10.24 25.6 10.24 10.24 0 20.48-5.12 28.16-12.8 15.36-15.36 12.8-38.4-2.56-53.76z" fill="#FF794F" ></path><path d="M657.92 926.72H115.2c-20.48 0-38.4-17.92-38.4-38.4v-140.8l181.76-181.76c12.8-12.8 28.16-15.36 43.52-7.68l209.92 104.96c46.08 23.04 97.28 12.8 133.12-20.48l281.6-281.6v294.4c0 20.48 17.92 38.4 38.4 38.4s38.4-17.92 38.4-38.4V115.2c0-64-51.2-115.2-115.2-115.2H115.2C51.2 0 0 51.2 0 115.2v773.12c0 64 51.2 115.2 115.2 115.2h540.16c20.48 0 38.4-17.92 38.4-38.4 2.56-20.48-15.36-38.4-35.84-38.4zM76.8 115.2C76.8 94.72 94.72 76.8 115.2 76.8h773.12c20.48 0 38.4 17.92 38.4 38.4v135.68L591.36 588.8c-12.8 12.8-30.72 15.36-43.52 7.68l-209.92-104.96c-46.08-23.04-99.84-15.36-133.12 20.48l-128 128V115.2z" fill="#FF794F" ></path><path d="M348.16 384c64 0 115.2-51.2 115.2-115.2S412.16 153.6 348.16 153.6C284.16 151.04 230.4 204.8 230.4 268.8s53.76 115.2 117.76 115.2z m0-153.6c20.48 0 38.4 17.92 38.4 38.4s-17.92 38.4-38.4 38.4-38.4-17.92-38.4-38.4c0-23.04 17.92-38.4 38.4-38.4z" fill="#FF794F" ></path>
</svg>