<svg xmlns="http://www.w3.org/2000/svg" viewBox="0 0 1190 1024" xml:space="preserve">
  <path d="M426.889 956.23V120.864H60.43A60.431 60.431 0 0 1 0 60.43 60.431 60.431 0 0 1 60.431 0h870.453a60.431 60.431 0 0 1 60.432 60.431 60.431 60.431 0 0 1-60.432 60.432H562.693V956.23a67.769 67.769 0 0 1-67.769 67.768 67.769 67.769 0 0 1-68.035-67.768z m720.375-28.68H699.83a48.559 48.559 0 0 0 0 96.45h447.433a48.559 48.559 0 0 0 0-96.45z" fill="#ffffff" ></path><path d="M1147.264 667.014H699.83a48.425 48.425 0 0 0 0 96.317h447.433a48.425 48.425 0 0 0 0-96.317z" fill="#ffffff" ></path>
</svg>