<svg xmlns="http://www.w3.org/2000/svg" viewBox="0 0 1024 1024" xml:space="preserve">
  <path d="M974.677333 931.413333c23.424 0 42.368 18.944 42.368 42.325334-0.64 23.381333-19.626667 42.368-42.965333 42.368H47.36a42.368 42.368 0 0 1 0-84.693334h927.274667zM890.026667 3.797333a126.805333 126.805333 0 0 1 126.421333 126.421334v539.818666a126.805333 126.805333 0 0 1-126.421333 126.421334H131.456A126.805333 126.805333 0 0 1 5.12 670.037333V130.218667A126.805333 126.805333 0 0 1 131.413333 3.797333H890.026667z m0 84.053334H131.456v0.64a42.368 42.368 0 0 0-42.325333 42.368v539.178666c0 23.381333 18.944 42.325333 42.325333 42.325334H890.026667a42.368 42.368 0 0 0 42.368-42.325334V130.218667a42.368 42.368 0 0 0-42.368-42.368z m-97.322667 396.373333c23.381333 0 42.325333 18.944 42.325333 42.325333a41.813333 41.813333 0 0 1-41.685333 42.325334H228.181333a42.368 42.368 0 0 1 0-84.693334h564.48z m0-252.885333c23.381333 0 42.325333 18.986667 42.325333 42.368a41.813333 41.813333 0 0 1-41.685333 42.325333H228.181333a42.368 42.368 0 0 1 0-84.693333h564.48z" fill="#FFFFFF" ></path>
</svg>