<svg xmlns="http://www.w3.org/2000/svg" viewBox="0 0 1028 1024" xml:space="preserve">
  <path d="M221.901531 148.041143h584.557715a72.996571 72.996571 0 1 0 0-145.773714H221.901531a72.996571 72.996571 0 1 0 0 145.773714" fill="#F2709C" ></path><path d="M762.79296 816.932571c-3.291429 33.792-35.328 60.269714-72.850286 60.269715H338.418103c-37.595429 0-69.558857-26.477714-72.777143-60.269715l-43.373714-450.121142h583.899428l-43.373714 450.121142zM952.598674 220.964571H75.762103a72.996571 72.996571 0 1 0 0 145.846858h1.024c0 2.413714-0.950857 4.534857-0.731429 6.948571l44.032 457.142857c10.678857 109.494857 104.521143 192.146286 218.331429 192.146286h351.524571c113.810286 0 207.725714-82.651429 218.258286-192.219429l44.032-457.069714c0.219429-2.413714-0.731429-4.534857-0.731429-6.948571h1.097143a72.996571 72.996571 0 1 0 0-145.846858z" fill="#F2709C" ></path><path d="M623.748389 804.278857a72.923429 72.923429 0 0 0 73.142857-72.923428V512.731429a72.996571 72.996571 0 1 0-146.139429 0v218.697142c0 40.301714 32.694857 72.923429 72.996572 72.923429M404.539246 804.278857a72.996571 72.996571 0 0 0 73.142857-72.923428V512.731429a72.996571 72.996571 0 0 0-146.212572 0v218.697142c0 40.301714 32.768 72.923429 73.142858 72.923429" fill="#F2709C" ></path>
</svg>