<svg xmlns="http://www.w3.org/2000/svg" viewBox="0 0 1113 1024" xml:space="preserve">
  <path d="M382.218 155.479h685.79q45.348 0 45.348 45.348 0 45.347-45.348 45.347h-685.79q-45.348 0-45.348-45.347 0-45.348 45.348-45.348zM382.218 524.74h685.79q45.348 0 45.348 45.348t-45.348 45.348h-685.79q-45.348 0-45.348-45.348t45.348-45.348zM382.218 894.002h685.79q45.348 0 45.348 45.348t-45.348 45.348h-685.79q-45.348 0-45.348-45.348t45.348-45.348zM142.522 0a142.522 142.522 0 1 0 142.522 142.522A142.522 142.522 0 0 0 142.522 0z m0 233.218a90.696 90.696 0 1 1 90.696-90.696 90.696 90.696 0 0 1-90.696 90.696z m0 136.044a142.522 142.522 0 1 0 142.522 142.522 142.522 142.522 0 0 0-142.522-142.522z m0 233.218a90.696 90.696 0 1 1 90.696-90.696 90.696 90.696 0 0 1-90.696 90.696z m0 136.043a142.522 142.522 0 1 0 142.522 142.522 142.522 142.522 0 0 0-142.522-142.522z m0 233.218a90.696 90.696 0 1 1 90.696-90.696 90.696 90.696 0 0 1-90.696 90.696z" fill="#8E8E93" ></path><path d="M90.696 142.522a51.826 51.826 0 1 0 103.652 0 51.826 51.826 0 1 0-103.652 0z" fill="#8E8E93" ></path>
</svg>