<svg xmlns="http://www.w3.org/2000/svg" viewBox="0 0 1117 1024" xml:space="preserve">
  <path d="M390.239723 68.401925h677.327259q49.969945 0 49.969946 49.969946v-0.136q0 49.969945-49.969946 49.969945H390.239723q-49.969945 0-49.969945-49.969945v0.136q0-49.969945 49.969945-49.969946zM390.239723 474.853481h677.327259q49.969945 0 49.969946 49.969945v-0.137q0 49.969945-49.969946 49.969945H390.239723q-49.969945 0-49.969945-49.969945v0.137q0-49.969945 49.969945-49.969945zM390.239723 881.441036h677.327259q49.969945 0 49.969946 49.969945v-0.137q0 49.969945-49.969946 49.969946H390.239723q-49.969945 0-49.969945-49.969946v0.137q0-49.969945 49.969945-49.969945zM301.221821 10.649988A36.043961 36.043961 0 0 0 275.690848 0a35.907961 35.907961 0 0 0-25.531972 10.649988l-127.109861 127.381861-61.301933-61.847932a36.043961 36.043961 0 0 0-25.530972-10.649989 36.17996 36.17996 0 0 0-25.530972 61.712933l87.105905 87.515904a35.770961 35.770961 0 0 0 25.257972 10.512989 35.224961 35.224961 0 0 0 25.394973-10.649989L301.221821 61.575933a36.31696 36.31696 0 0 0 0-50.926945z m0 412.594549a35.907961 35.907961 0 0 0-25.530973-10.512988 35.770961 35.770961 0 0 0-25.531972 10.512988l-127.109861 127.246861-61.301933-61.848932a36.043961 36.043961 0 0 0-25.530972-10.785989 36.17996 36.17996 0 0 0-25.530972 61.848933l87.105905 87.379904a35.770961 35.770961 0 0 0 50.925944 0L301.221821 474.032482a36.45396 36.45396 0 0 0 0-50.788945z m0 386.108578a36.043961 36.043961 0 0 0-25.530973-10.649989 35.907961 35.907961 0 0 0-25.531972 10.649989l-127.109861 127.38286-61.301933-61.848932a35.907961 35.907961 0 0 0-25.530972-10.512988 35.770961 35.770961 0 0 0-25.530972 10.512988 36.17996 36.17996 0 0 0 0 51.062944l87.105905 87.515905a36.043961 36.043961 0 0 0 50.925944 0L301.221821 860.142059a36.45396 36.45396 0 0 0 0-50.789944z" fill="#ffffff" ></path>
</svg>