<svg xmlns="http://www.w3.org/2000/svg" viewBox="0 0 1092 1024" xml:space="preserve">
  <path d="M464.759467 0c43.144533 0 77.824 32.9728 77.824 74.001067 0 41.028267-34.679467 74.001067-77.824 74.001066H156.330667v659.387734h311.978666c43.144533 0 77.824 33.5872 77.824 74.683733 0 40.96-34.679467 74.001067-77.824 74.001067H77.824c-43.144533 0-77.824-32.9728-77.824-74.001067V74.001067C0 32.9728 34.679467 0 77.824 0z m219.613866 144.725333a74.820267 74.820267 0 0 1 105.6768 0l280.439467 280.3712a74.205867 74.205867 0 0 1-0.682667 105.6768l-280.439466 280.439467a76.663467 76.663467 0 0 1-52.8384 21.640533c-18.909867 0-37.888-6.826667-52.8384-21.640533a74.820267 74.820267 0 0 1 0-105.6768l153.122133-153.053867H456.772267A74.274133 74.274133 0 0 1 382.293333 477.866667c0-41.301333 33.1776-74.478933 74.478934-74.478934h380.040533l-152.439467-153.053866a74.820267 74.820267 0 0 1 0-105.6768z" fill="#FF794F" ></path>
</svg>