<svg xmlns="http://www.w3.org/2000/svg" viewBox="0 0 1024 1024" xml:space="preserve">
  <path d="M236.441473 29.290379C193.536045 68.611822 195.174439 136.60515 237.567869 176.131391l319.691521 297.163612a52.633389 52.633389 0 0 1 0 77.106891L237.36307 847.872705c-41.471834 38.604646-44.031824 104.345183-3.583986 143.973824 21.503914 21.196715 50.790197 32.153471 79.871681 32.153471 28.364687 0 56.524574-10.239959 77.823688-30.10548l363.006548-337.40665c41.983832-38.399846 64.716541-89.599642 64.716541-144.690621a197.631209 197.631209 0 0 0-64.716541-144.690621L391.576853 29.802377A114.175543 114.175543 0 0 0 313.753164 0.004096C285.695676 0.004096 257.740588 9.732057 236.441473 29.290379z" fill="#FFFFFF" ></path>
</svg>