<svg xmlns="http://www.w3.org/2000/svg" viewBox="0 0 1024 1024" xml:space="preserve">
  <path d="M315.733333 452.266667c70.570667 0 128 57.386667 128 128V896c0 70.570667-57.429333 128-128 128H128c-70.570667 0-128-57.429333-128-128v-315.733333c0-70.613333 57.429333-128 128-128zM896 682.666667c70.570667 0 128 57.429333 128 128v85.333333c0 70.570667-57.429333 128-128 128h-187.733333c-70.570667 0-128-57.429333-128-128v-85.333333c0-70.570667 57.429333-128 128-128zM315.733333 537.6H128c-23.509333 0-42.666667 19.114667-42.666667 42.666667V896a42.666667 42.666667 0 0 0 42.666667 42.666667h187.733333c23.509333 0 42.666667-19.114667 42.666667-42.666667v-315.733333c0-23.552-19.157333-42.666667-42.666667-42.666667zM896 768h-187.733333a42.666667 42.666667 0 0 0-42.666667 42.666667v85.333333a42.666667 42.666667 0 0 0 42.666667 42.666667H896a42.666667 42.666667 0 0 0 42.666667-42.666667v-85.333333a42.666667 42.666667 0 0 0-42.666667-42.666667z m0-768c70.570667 0 128 57.429333 128 128v315.733333c0 70.570667-57.429333 128-128 128h-187.733333c-70.570667 0-128-57.429333-128-128V128c0-70.570667 57.429333-128 128-128z m0 85.333333h-187.733333c-23.509333 0-42.666667 19.157333-42.666667 42.666667v315.733333c0 23.509333 19.157333 42.666667 42.666667 42.666667H896c23.552 0 42.666667-19.157333 42.666667-42.666667V128c0-23.509333-19.114667-42.666667-42.666667-42.666667zM315.733333 0c70.570667 0 128 57.429333 128 128v85.333333c0 70.570667-57.429333 128-128 128H128C57.429333 341.333333 0 283.904 0 213.333333V128c0-70.570667 57.429333-128 128-128z m0 85.333333H128c-23.509333 0-42.666667 19.157333-42.666667 42.666667v85.333333c0 23.509333 19.157333 42.666667 42.666667 42.666667h187.733333c23.509333 0 42.666667-19.157333 42.666667-42.666667V128c0-23.509333-19.157333-42.666667-42.666667-42.666667z" fill="#FF794F" ></path>
</svg>