<svg xmlns="http://www.w3.org/2000/svg" viewBox="0 0 1024 1024" xml:space="preserve">
  <path d="M512.432384 0.000512C786.045047-0.357888 1022.691329 218.470803 1024.124928 513.945855c1.382399 280.47346-230.451085 510.258945-512.409344 510.054145A512.358144 512.358144 0 0 1 0.43264 490.598667C9.495035 225.792399 229.808525 0.256512 512.432384 0.000512z m297.727851 329.062235c-14.950393-25.548787-47.974376-29.286385-69.171165-8.140795l-298.905451 297.881451c-2.201599 2.150399-3.942398 4.812798-7.065596 8.703995-3.071998-3.788798-4.505598-5.939197-6.348797-7.782396-41.881579-42.495979-83.711958-85.043157-125.951937-127.283136a59.23837 59.23837 0 0 0-18.892791-13.158394c-19.66079-7.884796-40.39678-0.2048-51.967974 18.124791a42.035179 42.035179 0 0 0 6.604797 52.735974l164.351918 163.686318c21.299189 21.196789 44.851178 21.196789 66.099167 0 110.079945-109.823945 220.05749-219.64789 330.035035-329.523035 3.071998-3.071998 6.195197-6.348797 8.703995-9.932795 9.881595-14.540793 11.519994-29.900785 2.559999-45.311978z" fill="#FF794F" ></path>
</svg>