<svg xmlns="http://www.w3.org/2000/svg" viewBox="0 0 1025 1024" xml:space="preserve">
  <path d="M361.893823 444.816783a33.987983 33.987983 0 0 0-48.115976 0 33.987983 33.987983 0 0 0 0 48.115976L513.919749 693.074662H33.783984C14.843993 693.074662 0 707.406655 0 726.345645s15.355993 34.295983 34.294983 34.295984h484.742764l-205.2599 205.259899a33.987983 33.987983 0 0 0 0 48.115977c13.307994 13.309994 34.806983 13.309994 48.115976 0l260.541873-260.541873c13.309994-13.308994 13.309994-34.807983 0-48.115976L361.893823 444.816783z" fill="#FF794F" ></path><path d="M945.939538 0H79.851961C35.830983 0 0 35.830983 0 79.851961v262.078872a34.294983 34.294983 0 0 0 68.589967 0V121.825941c0-29.176986 23.034989-52.210975 52.211974-52.210975h783.163618c29.176986 0 52.210975 23.033989 52.210974 52.209975v781.116618c0 29.176986-23.033989 52.210975-52.210974 52.210975h-197.069904c-9.213996 0-17.915991 3.582998-24.569988 10.237995-6.142997 6.653997-9.725995 14.843993-9.213996 24.057988 0 18.938991 15.355993 34.294983 34.294984 34.294983H945.939538c44.019979 0 79.851961-35.830983 79.851961-79.851961V79.851961C1025.791499 35.830983 989.959517 0 945.939538 0z" fill="#FF794F" ></path>
</svg>