<svg xmlns="http://www.w3.org/2000/svg" viewBox="0 0 1024 1024" xml:space="preserve">
  <path d="M1024 192v640c0 106.666667-85.333333 192-192 192h-640C85.333333 1024 0 938.666667 0 832v-640C0 85.333333 85.333333 0 192 0h640C938.666667 0 1024 85.333333 1024 192zM832 981.333333c81.066667 0 149.333333-68.266667 149.333333-149.333333v-640C981.333333 110.933333 913.066667 42.666667 832 42.666667h-640C110.933333 42.666667 42.666667 110.933333 42.666667 192v640C42.666667 913.066667 110.933333 981.333333 192 981.333333h640z" fill="#FF794F" ></path><path d="M230.4 554.666667c0 25.6 17.066667 42.666667 42.666667 42.666666h477.866666c12.8 0 21.333333-4.266667 29.866667-12.8 17.066667-17.066667 17.066667-42.666667 0-59.733333l-209.066667-209.066667c-34.133333-34.133333-85.333333-34.133333-119.466666 0l-209.066667 209.066667c-8.533333 8.533333-12.8 17.066667-12.8 29.866667z" fill="#FF794F" ></path>
</svg>